<svg version="1.0" xmlns="http://www.w3.org/2000/svg" width="838" height="320" viewBox="0 0 2040 1520" preserveAspectRatio="xMidYMid meet">
<g id="layer101" fill="#000000" stroke="none">
 <path d="M270 1325 c0 -8 9 -15 20 -15 19 0 20 -7 20 -130 l0 -130 25 0 25 0 0 133 c0 90 -4 137 -12 145 -18 18 -78 16 -78 -3z"/>
 <path d="M720 1326 c0 -10 9 -16 25 -16 20 0 25 -5 25 -25 0 -25 -1 -25 -92 -25 -51 0 -98 -4 -104 -8 -6 -4 -14 -24 -18 -44 -7 -36 -5 -38 19 -38 16 0 25 -6 25 -15 0 -8 7 -15 15 -15 8 0 15 -9 15 -20 0 -26 -26 -26 -33 -1 -6 24 -70 66 -76 50 -2 -6 6 -21 18 -33 26 -28 26 -36 1 -36 -11 0 -20 -7 -20 -15 0 -9 9 -15 25 -15 14 0 25 -4 25 -10 0 -5 9 -10 20 -10 11 0 20 5 20 10 0 6 14 10 30 10 29 0 30 2 30 44 0 26 -5 46 -12 49 -7 3 15 6 50 6 l62 1 0 30 c0 24 4 30 21 30 18 0 20 5 17 53 l-3 52 -42 3 c-34 2 -43 0 -43 -12z m10 -111 c0 -12 -14 -15 -65 -15 -51 0 -65 3 -65 15 0 12 14 15 65 15 51 0 65 -3 65 -15z"/>
 <path d="M1209 1331 c-70 -23 -99 -61 -99 -133 0 -80 59 -138 140 -138 48 0 98 26 120 62 40 65 15 175 -44 198 -39 15 -89 19 -117 11z m104 -49 c39 -35 38 -125 -2 -166 -32 -32 -96 -28 -127 7 -26 31 -33 101 -13 138 24 45 101 56 142 21z"/>
 <path d="M1476 1330 c-38 -12 -66 -39 -66 -63 0 -20 1 -20 23 1 48 45 137 50 158 9 16 -29 -15 -54 -81 -67 -90 -16 -121 -70 -70 -123 41 -44 158 -29 185 24 15 28 15 29 -9 29 -15 0 -30 -8 -36 -19 -14 -28 -65 -37 -95 -17 -48 32 -28 56 61 76 75 17 94 33 94 80 0 30 -5 43 -22 54 -30 19 -105 27 -142 16z"/>
 <path d="M1726 1330 c-38 -12 -66 -39 -66 -63 0 -20 1 -20 23 1 48 45 137 50 158 9 16 -29 -15 -54 -81 -67 -90 -16 -121 -70 -70 -123 41 -44 158 -29 185 24 15 28 15 29 -9 29 -15 0 -30 -8 -36 -19 -14 -28 -65 -37 -95 -17 -48 32 -28 56 61 76 75 17 94 33 94 80 0 30 -5 43 -22 54 -30 19 -105 27 -142 16z"/>
 <path d="M860 1200 l0 -130 93 0 c78 0 97 3 110 18 21 23 22 62 3 87 -12 17 -12 21 5 33 13 9 19 25 19 52 0 58 -23 70 -137 70 l-93 0 0 -130z m180 81 c23 -43 -12 -71 -89 -71 l-51 0 0 45 0 45 65 0 c53 0 66 -3 75 -19z m-29 -111 c20 -11 26 -54 9 -65 -6 -4 -35 -9 -65 -12 l-55 -6 0 47 0 46 46 0 c25 0 54 -5 65 -10z"/>
 <path d="M520 1285 c0 -12 19 -15 115 -15 96 0 115 3 115 15 0 12 -19 15 -115 15 -96 0 -115 -3 -115 -15z"/>
 <path d="M180 1275 c0 -10 9 -32 20 -51 12 -18 24 -52 28 -76 6 -34 12 -44 30 -46 22 -3 23 -1 16 35 -11 65 -35 109 -76 142 -16 12 -18 11 -18 -4z"/>
 <path d="M462 1274 c-28 -20 -60 -81 -68 -133 -6 -37 -5 -41 14 -41 16 0 23 8 28 38 3 20 18 58 31 84 30 55 28 75 -5 52z"/>
 <path d="M690 1115 l0 -45 61 0 60 0 -3 43 -3 42 -57 3 -58 3 0 -46z"/>
 <path d="M800 951 c-72 -16 -88 -16 -105 -5 -11 8 -40 14 -66 14 -42 0 -51 -4 -80 -37 -18 -21 -51 -50 -74 -64 -49 -31 -85 -76 -114 -139 -28 -61 -29 -187 -1 -248 42 -92 117 -158 210 -183 37 -10 53 -23 90 -73 53 -71 141 -134 225 -161 88 -29 239 -27 320 5 101 39 202 120 240 192 9 17 27 29 47 33 179 39 288 232 233 410 -20 62 -82 139 -143 177 -20 12 -49 37 -65 55 -25 29 -35 33 -76 33 -26 0 -55 -6 -65 -13 -14 -11 -33 -10 -104 5 -118 24 -354 23 -472 -1z"/>
 </g>
<g id="layer102" fill="#24a6e7" stroke="none">
 <path d="M720 1115 c0 -21 5 -25 30 -25 25 0 30 4 30 25 0 21 -5 25 -30 25 -25 0 -30 -4 -30 -25z"/>
 <path d="M800 951 c-72 -16 -88 -16 -105 -5 -11 8 -40 14 -66 14 -42 0 -51 -4 -80 -37 -18 -21 -51 -50 -74 -64 -49 -31 -85 -76 -114 -139 -28 -61 -29 -187 -1 -248 42 -92 117 -158 210 -183 37 -10 53 -23 90 -73 53 -71 141 -134 225 -161 88 -29 239 -27 320 5 101 39 202 120 240 192 9 17 27 29 47 33 179 39 288 232 233 410 -20 62 -82 139 -143 177 -20 12 -49 37 -65 55 -25 29 -35 33 -76 33 -26 0 -55 -6 -65 -13 -14 -11 -33 -10 -104 5 -118 24 -354 23 -472 -1z"/>
 </g>
<g id="layer103" fill="#43c6d2" stroke="none">
 <path d="M720 1115 c0 -21 5 -25 30 -25 25 0 30 4 30 25 0 21 -5 25 -30 25 -25 0 -30 -4 -30 -25z"/>
 <path d="M573 846 c-83 -27 -142 -94 -157 -179 -11 -60 16 -137 65 -186 134 -133 369 -35 369 155 0 143 -144 252 -277 210z m99 -163 c22 -20 24 -76 3 -93 -37 -31 -105 0 -105 47 0 51 64 80 102 46z"/>
 <path d="M1394 851 c-58 -15 -90 -34 -120 -75 -33 -44 -54 -95 -54 -132 0 -16 -30 -53 -99 -121 -88 -88 -103 -109 -149 -203 -28 -58 -56 -132 -63 -165 -7 -33 -16 -67 -20 -76 -9 -17 -4 -20 56 -36 11 -3 58 -6 105 -7 97 -1 182 24 260 77 52 35 115 100 135 139 9 17 27 29 47 33 87 19 173 87 215 170 38 74 43 177 12 239 -18 37 -28 46 -48 46 -17 0 -39 13 -61 36 -60 62 -146 92 -216 75z"/>
 <path d="M954 836 c-47 -15 -104 -47 -104 -58 0 -12 10 -10 68 12 67 26 168 26 242 0 62 -21 76 -17 42 11 -54 43 -169 60 -248 35z"/>
 </g>
<g id="layer104" fill="#6fd7b5" stroke="none">
 <path d="M720 1115 c0 -21 5 -25 30 -25 25 0 30 4 30 25 0 21 -5 25 -30 25 -25 0 -30 -4 -30 -25z"/>
 <path d="M573 846 c-83 -27 -142 -94 -157 -179 -11 -60 16 -137 65 -186 134 -133 369 -35 369 155 0 143 -144 252 -277 210z m99 -163 c22 -20 24 -76 3 -93 -37 -31 -105 0 -105 47 0 51 64 80 102 46z"/>
 <path d="M1381 848 c-31 -7 -57 -23 -90 -56 -75 -75 -90 -170 -42 -263 l22 -41 -74 -78 c-80 -85 -136 -185 -157 -280 -7 -30 -16 -66 -22 -79 l-9 -24 68 6 c148 12 309 108 368 219 9 17 27 29 47 33 127 28 234 147 245 275 l5 56 -38 -4 -39 -4 -12 63 c-25 131 -142 207 -272 177z m99 -168 c40 -40 12 -100 -47 -100 -51 0 -73 75 -31 104 30 21 54 20 78 -4z"/>
 <path d="M954 836 c-47 -15 -104 -47 -104 -58 0 -12 10 -10 68 12 67 26 168 26 242 0 62 -21 76 -17 42 11 -54 43 -169 60 -248 35z"/>
 </g>
<g id="layer105" fill="#b5f287" stroke="none">
 <path d="M720 1115 c0 -21 5 -25 30 -25 25 0 30 4 30 25 0 21 -5 25 -30 25 -25 0 -30 -4 -30 -25z"/>
 <path d="M573 846 c-83 -27 -142 -94 -157 -179 -11 -60 16 -137 65 -186 134 -133 369 -35 369 155 0 143 -144 252 -277 210z m99 -163 c22 -20 24 -76 3 -93 -37 -31 -105 0 -105 47 0 51 64 80 102 46z"/>
 <path d="M1381 848 c-31 -7 -57 -23 -90 -56 -95 -96 -95 -220 1 -313 l47 -47 -49 -41 c-83 -70 -158 -202 -179 -317 l-8 -41 38 8 c124 28 256 119 304 211 9 17 27 29 47 33 107 23 207 118 238 225 7 25 6 25 -41 22 -27 -2 -49 -1 -49 3 0 3 5 27 11 51 40 157 -107 300 -270 262z m99 -168 c39 -39 14 -100 -41 -100 -56 0 -82 73 -37 104 30 21 54 20 78 -4z"/>
 <path d="M954 836 c-47 -15 -104 -47 -104 -58 0 -12 10 -10 68 12 67 26 168 26 242 0 62 -21 76 -17 42 11 -54 43 -169 60 -248 35z"/>
 </g>
<g id="layer106" fill="#fdfeff" stroke="none">
 <path d="M573 846 c-83 -27 -142 -94 -157 -179 -11 -60 16 -137 65 -186 134 -133 369 -35 369 155 0 143 -144 252 -277 210z m99 -163 c22 -20 24 -76 3 -93 -37 -31 -105 0 -105 47 0 51 64 80 102 46z"/>
 <path d="M1381 848 c-82 -18 -161 -123 -161 -213 0 -209 279 -296 397 -122 114 169 -34 381 -236 335z m99 -168 c39 -39 14 -100 -41 -100 -56 0 -82 73 -37 104 30 21 54 20 78 -4z"/>
 <path d="M954 836 c-47 -15 -104 -47 -104 -58 0 -12 10 -10 68 12 67 26 168 26 242 0 62 -21 76 -17 42 11 -54 43 -169 60 -248 35z"/>
 </g>

</svg>