<?xml version="1.0" encoding="utf-8"?>
<!-- Generator: Adobe Illustrator 16.0.0, SVG Export Plug-In . SVG Version: 6.00 Build 0)  -->
<!DOCTYPE svg PUBLIC "-//W3C//DTD SVG 1.1//EN" "http://www.w3.org/Graphics/SVG/1.1/DTD/svg11.dtd">
<svg version="1.1"
	 id="svg2" xmlns:rdf="http://www.w3.org/1999/02/22-rdf-syntax-ns#" xmlns:dc="http://purl.org/dc/elements/1.1/" xmlns:cc="http://creativecommons.org/ns#"
	 xmlns="http://www.w3.org/2000/svg" xmlns:xlink="http://www.w3.org/1999/xlink" x="0px" y="0px" width="838px" height="320px"
	 viewBox="352.7 0 838 320" enable-background="new 352.7 0 838 320" xml:space="preserve">
<g>
	<radialGradient id="SVGID_1_" cx="501.5566" cy="165.7322" r="113.6519" gradientUnits="userSpaceOnUse">
		<stop  offset="0" style="stop-color:#E4B720"/>
		<stop  offset="0.1933" style="stop-color:#E2B11F"/>
		<stop  offset="0.4481" style="stop-color:#DEA11D"/>
		<stop  offset="0.7358" style="stop-color:#D78519"/>
		<stop  offset="1" style="stop-color:#CF6615"/>
	</radialGradient>
	<path fill-rule="evenodd" clip-rule="evenodd" fill="url(#SVGID_1_)" d="M501.56,52.082c62.752,0,113.65,50.897,113.65,113.65
		c0,30.344-11.903,57.926-31.287,78.303c12.113-20.625,14.146-38.09,6.31-51.26c-7.54-12.686-25.44-20.177-51.843-23.133
		c4.818-1.883,8.916-4.789,12.028-8.759c8.651-11.035,7.567-27.587-1.176-43.687c3.576,9.973,3.096,19.594-2.276,26.46
		c-10.613,13.533-36.275,11.111-57.305-5.393c-21.039-16.499-29.502-40.844-18.888-54.366c6.386-8.154,18.257-10.517,31.288-7.48
		c-20.76-8.004-40.931-6.105-50.898,6.617c-13.818,17.61-2.799,49.323,24.604,70.827c8.312,6.515,17.173,11.342,25.883,14.412
		c-25.661,0.544-55.984,3.678-90.091,9.098c143.465-13.009,206.612,19.934,69.51,100.178c-5.674-1.047-11.196-2.49-16.547-4.324
		c28.693-15.061,123.191-68.271,61.344-85.002c25.07,20.16-56.948,56.135-95.91,65.768c-3.355-2.729-6.553-5.641-9.573-8.727
		c33.094-8.328,150.466-47.979,65.31-67.59c37.268,18.607-37.281,34.787-84.904,40.666c-8.226-15.727-12.885-33.611-12.885-52.607
		C387.903,102.98,438.79,52.082,501.56,52.082L501.56,52.082z M498.669,111.34l47.974-36.125l-33.952,49.992
		C512.69,125.206,497.692,127.197,498.669,111.34L498.669,111.34z M562.984,261.357c-4.616,2.967-9.46,5.631-14.503,7.918
		c7.734-6.73,15.766-15.619,24.066-28.152C570.157,247.226,566.853,254.238,562.984,261.357L562.984,261.357z M526.499,276.633
		c-8.025,1.811-16.375,2.75-24.939,2.75c-5.098,0-10.113-0.322-15.031-0.98c9.367-3.82,20.37-8.695,29.62-13.938
		c5.378-3.02,0.296,3.172,4.584,3.461c4.294,0.293,30.731-19.707,32.625-24.625C549.286,252.793,538.839,264.443,526.499,276.633
		L526.499,276.633z"/>
	<polygon fill="#3E3A39" points="693.29,143.452 713.235,143.452 684.239,185.99 664.284,185.99 693.29,143.452 	"/>
	<polygon fill="#3E3A39" points="722.005,143.452 741.949,143.452 712.949,185.99 693.003,185.99 722.005,143.452 	"/>
	<path fill="#3E3A39" d="M675.729,128.114h19.944l-3.959,5.561H749.7c9.67,0,15.183,2.864,16.552,8.602v16.348
		c-0.098,7.497-0.038,18.035-0.038,26.212c-13.721,0-31.497,0-45.213,0l6.575-9.859h19.46l0.675-28.503
		c0.14-5.976-3.345-7.201-10.621-7.228l-49.193-0.221l-12.232,17.162H655.72L675.729,128.114L675.729,128.114z"/>
	<polygon fill="#3E3A39" points="1131.608,178.73 1072.065,178.73 1068.915,184.771 1151.283,184.771 1151.283,181.752 
		1143.776,150.803 1124.835,150.803 1131.608,178.73 	"/>
	<polygon fill="#3E3A39" points="1035.79,128.847 1035.79,121.749 1154.939,121.749 1154.939,128.847 1035.79,128.847 	"/>
	<polygon fill="#3E3A39" points="1144.509,97.236 1046.21,97.236 1046.21,89.615 1144.509,89.615 1144.509,97.236 	"/>
	<path fill="#3E3A39" d="M666.792,124.165V87.894c24.854,0,44.124,0,76.954,0c9.919,0,14.896,3.846,14.896,11.51
		c0,5.663,0.022,10.285,0.043,15.171h-19.399v-4.088l0,0c-17.718,0-35.425,0-53.131,0l0,0v7.906c16.272,0,32.544,0.017,48.821,0.017
		v0.065h23.731v0.021h30.042c8.273,0,11.896,2.842,11.896,9.368c0.022,16.876,0.043,33.752,0.043,50.629l95.52,0.15l23.33-44.868
		h20.441l-4.108,7.896h24.981v-10.248h21.875v10.248h39.719v5.366h-39.719v13.403h37.204v5.56h-37.204v12.729h59.738l23.494-45.332
		h22.814l-26.654,51.373h-2.514h-20.291H919.884l3.15-6.041h37.818v-12.729h-31.217l2.891-5.56h28.326v-13.403h-27.766
		l-19.633,37.733c-37.387,0-74.773,0.324-112.16,0.021c-21.331-0.184-19.395,1.338-19.51-16.354c-0.08-13.737-0.205-24.162,0-39.205
		c0.061-3.716-1.303-5.124-4.949-5.124h-35.178v-0.01C716.708,124.122,691.742,124.165,666.792,124.165L666.792,124.165z
		 M686.154,105.401h53.131v-6.407c0-4.557-2.659-6.828-7.95-6.828c-15.063,0-30.122,0-45.181,0V105.401L686.154,105.401z"/>
	<path fill="#3E3A39" d="M789.558,88.401c6.796,0,12.297,5.506,12.297,12.281c0,6.785-5.501,12.297-12.297,12.297
		c-6.774,0-12.281-5.512-12.281-12.297C777.276,93.907,782.783,88.401,789.558,88.401L789.558,88.401z"/>
	<path fill="#3E3A39" d="M814.087,97.791h21.854c3.301,2.54,6.451,4.827,9.439,6.828c5.729-2.4,10.235-4.375,13.536-5.911
		c5.998-2.789,8.63-3.975,0.368-3.975h-50.138v-5.895c20.474,0,42.22-0.011,62.704-0.011c12.836-0.016,10.971,2.745,10.971,13.376
		c-8.663,3.538-15.06,6.207-24.056,10.091c1.339,0.567,2.825,1.132,4.477,1.688h6.462c12.922,0,18.357,3.419,18.357,11.963v49.227
		l-18.368,0.129c0-1.98,0.011-17.179,0.011-19.503h-11.93v1.047v18.457h-18.36v-19.503h-11.909v19.503h-18.358V114.02
		c10.766,0,21.499-0.038,32.252-0.038c-6.299-0.556-10.927-2.4-13.894-5.523c-1.336-0.863-3.646-2.567-6.947-5.145
		C817.57,101.043,815.425,99.21,814.087,97.791L814.087,97.791z M858.271,118.265h-0.496v14.077h11.93v-6.396
		C869.704,118.486,866.23,117.985,858.271,118.265L858.271,118.265z M857.774,136.613V151.1h11.93v-14.487H857.774L857.774,136.613z
		 M827.505,136.613V151.1h11.909v-14.487H827.505L827.505,136.613z M827.505,122.962v9.379h11.909v-13.791v-0.14
		c-3.97,0-7.938,0-11.909,0V122.962L827.505,122.962z"/>
	<path fill="#3E3A39" d="M917.188,128.922V87.485c28.152,0,46.253,0,83.392,0c12.244-0.27,17.562,3.149,17.39,11.946
		c-0.186,9.806-0.141,19.601-0.141,29.405C984.281,128.836,950.733,128.922,917.188,128.922L917.188,128.922z M994.626,121.814v-10
		h-54.613v10H994.626L994.626,121.814z M940.013,106.189v0.064h54.613v-4.923c0-5.987-1.045-8.361-8.942-8.107
		c-15.208,0.507-30.45,0-45.671,0V106.189L940.013,106.189z"/>
	<path fill="#3E3A39" d="M662.262,252.75v-43.719h15.528c4.768,0,8.43,0.896,11.002,2.707c2.584,1.813,3.873,4.314,3.873,7.498
		c0,2.383-0.794,4.465-2.4,6.256c-1.592,1.779-3.613,3.008-6.046,3.689v0.096c3.052,0.389,5.512,1.533,7.389,3.41
		c1.872,1.877,2.804,4.238,2.804,7.076c0,3.969-1.408,7.141-4.232,9.482c-2.822,2.316-6.672,3.504-11.569,3.504H662.262
		L662.262,252.75z M671.576,215.967v10.809h4.433c2.121,0,3.803-0.496,5.021-1.531c1.23-1.004,1.834-2.418,1.834-4.238
		c0-3.355-2.443-5.039-7.34-5.039H671.576L671.576,215.967z M671.576,233.808v12.006h5.528c2.362,0,4.189-0.551,5.523-1.65
		c1.326-1.08,1.99-2.588,1.99-4.531c0-1.844-0.664-3.279-1.975-4.314c-1.322-0.992-3.182-1.51-5.615-1.51H671.576L671.576,233.808z
		 M732.047,239.699h-20.554c0.322,4.852,3.24,7.27,8.748,7.27c3.436,0,6.488-0.842,9.109-2.535v6.676
		c-2.837,1.609-6.553,2.406-11.175,2.406c-4.952,0-8.823-1.393-11.569-4.207c-2.777-2.793-4.143-6.709-4.143-11.715
		c0-4.994,1.467-9.029,4.396-12.156c2.938-3.105,6.629-4.66,11.072-4.66c4.422,0,7.875,1.338,10.361,4.014
		c2.502,2.676,3.753,6.385,3.753,11.066V239.699L732.047,239.699z M723.541,234.004c0-4.66-1.893-6.99-5.668-6.99
		c-1.559,0-2.95,0.635-4.153,1.92c-1.207,1.273-1.957,2.955-2.254,5.07H723.541L723.541,234.004z M740.585,211.459
		c0-1.402,0.508-2.525,1.494-3.398s2.244-1.316,3.797-1.316c1.575,0,2.854,0.443,3.834,1.348c0.977,0.885,1.462,2.008,1.462,3.367
		c0,1.381-0.495,2.512-1.488,3.43c-0.991,0.916-2.271,1.359-3.808,1.359s-2.799-0.453-3.791-1.381
		C741.093,213.961,740.585,212.795,740.585,211.459L740.585,211.459z M741.27,252.75v-31.217h9.084v31.217H741.27L741.27,252.75z
		 M762.855,252.75v-43.719h15.101c15.527,0,23.295,7.109,23.295,21.314c0,6.742-2.18,12.178-6.526,16.268
		c-4.347,4.109-9.952,6.137-16.828,6.137H762.855L762.855,252.75z M772.169,216.658v28.477h5.086c4.422,0,7.896-1.316,10.416-3.947
		c2.512-2.633,3.773-6.213,3.773-10.713c0-4.336-1.316-7.744-3.947-10.172c-2.627-2.438-6.063-3.645-10.27-3.645H772.169
		L772.169,216.658z M809.286,237.281c0-5.135,1.543-9.189,4.605-12.102c3.086-2.936,7.227-4.402,12.406-4.402
		c5.025,0,9.018,1.447,11.973,4.314c2.955,2.893,4.434,6.775,4.434,11.662c0,5.111-1.511,9.189-4.541,12.199
		c-3.031,3.043-7.141,4.563-12.308,4.563c-5.07,0-9.116-1.445-12.093-4.367C810.764,246.258,809.286,242.275,809.286,237.281
		L809.286,237.281z M818.509,237.174c0,6.225,2.547,9.342,7.627,9.342c4.887,0,7.324-3.203,7.324-9.6
		c0-6.096-2.47-9.137-7.389-9.137c-2.385,0-4.229,0.809-5.557,2.447C819.179,231.867,818.509,234.176,818.509,237.174
		L818.509,237.174z M881.763,252.75h-9.049v-4.768h-0.141c-2.331,3.688-5.522,5.533-9.578,5.533c-7.25,0-10.885-4.391-10.885-13.148
		v-18.834h9.115v17.98c0,4.662,1.822,7.002,5.48,7.002c1.812,0,3.256-0.648,4.367-1.92c1.09-1.283,1.641-3.02,1.641-5.199v-17.863
		h9.049V252.75L881.763,252.75z M932.333,252.75h-10.162l-3.289-10.021h-15.891l-3.213,10.021h-10.098l15.996-43.719h10.95
		L932.333,252.75L932.333,252.75z M916.69,235.545l-4.982-15.156c-0.303-0.971-0.539-2.244-0.669-3.818h-0.237
		c-0.13,1.273-0.389,2.504-0.776,3.689l-4.995,15.285H916.69L916.69,235.545z M950.606,237.519v15.23h-9.311v-43.719h15.048
		c10.874,0,16.31,4.605,16.31,13.818c0,4.486-1.629,8.068-4.918,10.785c-3.28,2.697-7.4,3.992-12.319,3.885H950.606L950.606,237.519
		z M950.606,216.248v14.119h4.043c5.49,0,8.221-2.383,8.221-7.129c0-4.66-2.72-6.99-8.133-6.99H950.606L950.606,216.248z
		 M992.049,237.519v15.23h-9.321v-43.719h15.06c10.874,0,16.299,4.605,16.299,13.818c0,4.486-1.629,8.068-4.907,10.785
		c-3.301,2.697-7.4,3.992-12.32,3.885H992.049L992.049,237.519z M992.049,216.248v14.119h4.034c5.479,0,8.219-2.383,8.219-7.129
		c0-4.66-2.719-6.99-8.133-6.99H992.049L992.049,216.248z M1012.499,248.662c0-1.402,0.541-2.566,1.619-3.463
		c1.068-0.906,2.352-1.359,3.829-1.359c1.511,0,2.772,0.453,3.819,1.381c1.025,0.916,1.541,2.07,1.541,3.441
		c0,1.457-0.516,2.611-1.541,3.506c-1.047,0.895-2.353,1.348-3.916,1.348c-1.49,0-2.729-0.463-3.775-1.381
		C1013.018,251.207,1012.499,250.052,1012.499,248.662L1012.499,248.662z M1057.179,251.586c-2.178,1.293-5.273,1.93-9.297,1.93
		c-4.77,0-8.609-1.445-11.564-4.348c-2.935-2.91-4.401-6.666-4.401-11.262c0-5.307,1.576-9.492,4.768-12.545
		c3.149-3.053,7.356-4.584,12.622-4.584c3.559,0,6.201,0.486,7.896,1.467v7.811c-2.072-1.51-4.357-2.275-6.817-2.275
		c-2.783,0-5.027,0.852-6.699,2.535c-1.682,1.691-2.535,4.033-2.535,6.967c0,2.848,0.799,5.113,2.396,6.764
		c1.597,1.641,3.786,2.471,6.526,2.471c2.428,0,4.8-0.775,7.107-2.33V251.586L1057.179,251.586z M1065.226,237.281
		c0-5.135,1.532-9.189,4.617-12.102c3.086-2.936,7.217-4.402,12.405-4.402c5.027,0,9.019,1.447,11.974,4.314
		c2.955,2.893,4.422,6.775,4.422,11.662c0,5.111-1.498,9.189-4.541,12.199c-3.031,3.043-7.13,4.563-12.308,4.563
		c-5.069,0-9.104-1.445-12.081-4.367C1066.716,246.258,1065.226,242.275,1065.226,237.281L1065.226,237.281z M1074.46,237.174
		c0,6.225,2.545,9.342,7.615,9.342c4.875,0,7.314-3.203,7.314-9.6c0-6.096-2.46-9.137-7.379-9.137c-2.373,0-4.229,0.809-5.556,2.447
		C1075.128,231.867,1074.46,234.176,1074.46,237.174L1074.46,237.174z M1157.497,252.75h-9.082v-17.818
		c0-4.77-1.748-7.152-5.232-7.152c-1.606,0-2.955,0.721-4.033,2.168c-1.068,1.445-1.607,3.225-1.607,5.307v17.496h-9.084v-18.035
		c0-4.639-1.727-6.936-5.166-6.936c-1.715,0-3.074,0.701-4.109,2.082c-1.037,1.379-1.532,3.191-1.532,5.457v17.432h-9.126v-31.217
		h9.126v4.887h0.107c1.091-1.791,2.535-3.172,4.347-4.176c1.803-0.971,3.711-1.467,5.708-1.467c4.38,0,7.378,1.953,8.995,5.9
		c2.416-3.947,5.922-5.9,10.507-5.9c6.774,0,10.183,4.188,10.183,12.578V252.75L1157.497,252.75z"/>
</g>
</svg>
