<svg version="1" xmlns="http://www.w3.org/2000/svg" width="838" height="320" viewBox="353 0 838 320"><g fill="#FFF"><path d="M550 251l-14 8c7-7 15-15 23-27l-9 19zM515 266a108 108 0 0 1-38 1c9-3 19-8 28-13 5-3 0 3 4 3 5 1 30-18 32-23-4 9-14 20-26 32zM672 135h21l-31 45h-21zM702 135h21l-31 45h-21z"/><path d="M653 119h21l-4 5h61c11 0 16 4 18 10v45h-48l7-11h20l1-30c0-6-3-8-11-8h-52l-13 18h-21l21-29zM1135 172h-63l-3 7h87v-4l-8-32h-20zM1034 119v-7h126v7zM1149 86h-104v-8h104z"/><path d="M644 114V76h81c11 0 16 4 16 12v16h-21v-4h-56v8h109c8 0 12 3 12 10v54h101l25-47h22l-5 8h27v-11h23v11h42v6h-42v14h39v6h-39v13h63l25-48h24l-28 55H911l4-7h40v-13h-33l3-6h30v-14h-30l-20 40H786c-23-1-21 1-21-18v-41c0-4-1-6-5-6H644zm20-19h56v-7c0-5-3-7-8-7h-48v14z"/><path d="M773 77a13 13 0 1 1 0 26 13 13 0 0 1 0-26zM799 87h24l10 7 14-7c6-2 9-4 0-4h-53v-6h67c13 0 11 3 11 14l-25 11 4 2h7c14 0 20 3 20 12v52l-20 1v-21h-12v21h-20v-21h-12v21h-20v-65h34c-6-1-11-3-14-6a120 120 0 0 1-15-11zm47 21v15h12v-7c0-8-3-8-12-8zm0 20v15h12v-15h-12zm-32 0v15h12v-15h-12zm0-15v10h12v-15h-12v5zM909 119V76h88c13-1 18 3 18 12v31H909zm81-7v-11h-57v11h57zm-57-17h57v-5c0-6-1-9-9-8h-48v13zM639 250v-46h16c5 0 9 1 12 3s4 5 4 8-1 5-3 7c-1 2-3 3-6 4 3 0 6 1 8 3s3 5 3 8c0 4-2 7-5 10-3 2-7 3-12 3h-17zm10-38v11h4l6-2 2-4c0-4-3-5-8-5h-4zm0 18v13h6c2 0 4 0 5-2 2-1 2-2 2-4s0-4-2-5l-6-2h-5zm64 7h-22c0 5 3 7 9 7l10-2v7l-12 2c-5 0-9-1-12-4s-5-7-5-13c0-5 2-9 5-12 3-4 7-5 12-5 4 0 8 1 11 4 2 3 4 7 4 12v4zm-9-6c0-5-2-8-6-8l-5 2-2 6h13zm18-24l1-4 4-1 4 1 2 4-2 3-4 2-4-2-1-3zm0 43v-33h10v33h-10zm23 0v-46h16c17 0 25 8 25 23 0 7-2 13-7 17s-11 6-18 6h-16zm10-38v30h5c5 0 9-1 11-4 3-3 4-6 4-11s-1-8-4-11c-2-2-6-4-11-4h-5zm39 22c0-5 2-10 5-13s8-4 13-4c6 0 10 1 13 4s5 7 5 13c0 5-2 9-5 12-3 4-8 5-13 5s-10-1-13-4-5-8-5-13zm10 0c0 7 3 10 8 10s8-4 8-10c0-7-3-10-8-10l-6 3-2 7zm67 16h-10v-5c-2 4-6 6-10 6-8 0-11-4-11-14v-20h9v19c0 5 2 8 6 8l5-2 1-6v-19h10v33zm54 0h-11l-4-10h-17l-3 10h-11l17-46h12l17 46zm-17-18l-5-16-1-4-1 4-5 16h12zm36 2v16h-10v-46h16c11 0 17 5 17 15 0 5-2 8-5 11s-8 4-13 4h-5zm0-22v15h4c6 0 9-3 9-8s-3-7-9-7h-4zm44 22v16h-10v-46h16c11 0 17 5 17 15 0 5-2 8-5 11-4 3-8 4-13 4h-5zm0-22v15h4c6 0 9-3 9-8s-3-7-9-7h-4zm21 34l2-4 4-1 4 1 2 4-2 4-4 1-4-1-2-4zm48 3c-3 2-6 2-10 2-5 0-9-1-12-4-4-3-5-7-5-12 0-6 2-10 5-14 3-3 8-4 13-4l9 1v8l-8-2c-3 0-5 1-7 3l-2 7c0 3 0 6 2 7 2 2 4 3 7 3s5-1 8-3v8zm8-15c0-5 2-10 5-13s8-4 13-4 10 1 13 4 4 7 4 13c0 5-1 9-4 12-4 4-8 5-13 5-6 0-10-1-13-4s-5-8-5-13zm10 0c0 7 3 10 8 10s8-4 8-10c0-7-3-10-8-10-3 0-5 1-6 3l-2 7zm88 16h-10v-18c0-5-2-8-5-8l-5 2-1 6v18h-10v-19c0-5-2-7-5-7l-5 2-1 6v18h-10v-33h10v6a12 12 0 0 1 10-6c5 0 8 2 10 6 2-4 6-6 11-6 7 0 11 4 11 13v20zM600 160a108 108 0 1 0-205 50c45-5 117-21 81-39 81 19-31 57-62 65l9 8c37-9 115-43 91-63 59 16-31 67-58 82l16 4c130-77 70-108-67-96 33-5 62-8 86-9-8-3-17-7-24-13-27-21-37-51-24-68 10-12 29-14 49-6-13-3-24-1-30 7-10 13-2 36 18 52s44 18 54 5c6-7 6-16 3-25 8 15 9 31 1 41-3 4-7 7-12 9 25 3 43 10 50 22s5 29-6 49c18-20 30-46 30-75zm-98-39s-15 2-14-13l46-34-32 47z"/></g></svg>