<svg width="320" height="320" xmlns="http://www.w3.org/2000/svg">
 <g>
  <title>background</title>
  <rect fill="none" id="canvas_background" height="322" width="322" y="-1" x="-1"/>
 </g>

 <g>
  <title>Layer 1</title>
  <g id="svg_3"/>
  <g id="svg_4"/>
  <g id="svg_5"/>
  <g id="svg_6"/>
  <g id="svg_7"/>
  <g id="svg_8"/>
  <g id="svg_9"/>
  <g id="svg_10"/>
  <g id="svg_11"/>
  <g id="svg_12"/>
  <g id="svg_13"/>
  <g id="svg_14"/>
  <g id="svg_15"/>
  <g id="svg_16"/>
  <g id="svg_17"/>
  <g stroke="null" id="svg_22">
   <path stroke="null" id="svg_1" fill="#FFD15C" d="m212.975888,107.757431c6.605692,6.605692 11.890112,14.532642 15.853907,22.459591c14.532634,30.385909 9.908211,68.698775 -15.853907,93.800264l-70.680668,71.341297c-32.367802,32.367802 -84.552674,32.367802 -116.259848,0c-32.36781,-32.36781 -32.36781,-84.552674 0,-116.259848l50.20297,-50.202978c-5.945056,19.817062 -5.28442,40.955388 1.981901,60.111821l-21.138334,21.138326c-14.532634,14.532642 -14.532634,38.973495 0,54.166765c15.193278,15.19327 38.973495,15.19327 54.166765,0l70.680668,-70.680668c7.266321,-7.266313 11.229484,-17.174532 11.229484,-27.083382s-3.963163,-19.817062 -11.229484,-27.083382c-7.266313,-7.266313 -17.174532,-11.229476 -27.083382,-11.229476l35.670336,-35.670336c7.926949,3.301894 15.19327,8.586322 22.459591,15.192007z"/>
   <path stroke="null" id="svg_2" fill="#FF7058" d="m107.284888,213.448431c-6.605685,-6.605685 -11.890112,-14.532634 -15.853907,-22.459584c-14.532634,-30.385917 -9.908211,-68.698775 15.853907,-93.800896l70.680668,-71.340665c32.36781,-32.36781 84.552674,-32.36781 116.259848,0c32.36781,32.367802 32.36781,84.552674 0,116.259848l-50.20297,50.202978c5.945056,-19.817069 5.28442,-40.955396 -1.981893,-60.111821l21.138326,-21.138334c14.532634,-14.532634 14.532634,-38.973487 0,-54.166765c-15.19327,-15.19327 -38.973495,-15.19327 -54.166765,0l-70.02004,71.341936c-7.266321,7.266321 -11.229476,17.174532 -11.229476,27.083382s3.963155,19.817062 11.229476,27.083382c7.266321,7.266321 17.17454,11.229476 27.083382,11.229476l-35.670329,35.670336c-8.587586,-3.963163 -15.853907,-9.247582 -23.120228,-15.853267l0,-0.000008z"/>
  </g>
 </g>
</svg>