<svg width="838" height="320" xmlns="http://www.w3.org/2000/svg">
 <g>
  <title>background</title>
  <rect fill="none" id="canvas_background" height="322" width="840" y="-1" x="-1"/>
 </g>

 <g>
  <title>Layer 1</title>
  <g id="svg_3"/>
  <g id="svg_4"/>
  <g id="svg_5"/>
  <g id="svg_6"/>
  <g id="svg_7"/>
  <g id="svg_8"/>
  <g id="svg_9"/>
  <g id="svg_10"/>
  <g id="svg_11"/>
  <g id="svg_12"/>
  <g id="svg_13"/>
  <g id="svg_14"/>
  <g id="svg_15"/>
  <g id="svg_16"/>
  <g id="svg_17"/>
  <g id="svg_20">
   <text stroke="null" transform="matrix(0.8121120333671569,0,0,0.8121120333671569,93.54363081511109,23.62582123186439) " font-weight="bold" xml:space="preserve" text-anchor="start" font-family="'Palatino Linotype', 'Book Antiqua', Palatino, serif" font-size="250" id="svg_19" y="270.580724" x="150.019224" stroke-width="0" fill="#FF7058">-iLinK</text>
   <g stroke="null" id="svg_22">
    <path stroke="null" id="svg_1" fill="#FFD15C" d="m170.405006,120.352473c4.628512,4.628512 8.331227,10.182809 11.1086,15.737106c10.182803,21.29096 6.942538,48.136223 -11.1086,65.724467l-49.524906,49.987799c-22.679644,22.679644 -59.244817,22.679644 -81.461568,0c-22.679649,-22.679649 -22.679649,-59.244817 0,-81.461568l35.176484,-35.17649c-4.165613,13.885524 -3.702715,28.696839 1.388689,42.11947l-14.81132,14.811315c-10.182803,10.182809 -10.182803,27.308155 0,37.953857c10.645707,10.645701 27.308155,10.645701 37.953857,0l49.524906,-49.524906c5.091404,-5.091399 7.868334,-12.033942 7.868334,-18.976928s-2.77693,-13.885524 -7.868334,-18.976928c-5.091399,-5.091399 -12.033942,-7.868329 -18.976928,-7.868329l24.993681,-24.993681c5.554297,2.313589 10.645701,6.01631 15.737106,10.644816z"/>
    <path stroke="null" id="svg_2" fill="#FF7058" d="m96.348874,194.408605c-4.628506,-4.628506 -8.331227,-10.182803 -11.1086,-15.7371c-10.182803,-21.290966 -6.942538,-48.136223 11.1086,-65.72491l49.524906,-49.987356c22.679649,-22.679649 59.244817,-22.679649 81.461568,0c22.679649,22.679644 22.679649,59.244817 0,81.461568l-35.176484,35.17649c4.165613,-13.885529 3.702715,-28.696844 -1.388684,-42.11947l14.811315,-14.81132c10.182803,-10.182803 10.182803,-27.30815 0,-37.953857c-10.645701,-10.645701 -27.308155,-10.645701 -37.953857,0l-49.062014,49.988247c-5.091404,5.091404 -7.868329,12.033942 -7.868329,18.976928s2.776924,13.885524 7.868329,18.976928c5.091404,5.091404 12.033948,7.868329 18.976928,7.868329l-24.993675,24.993681c-6.017195,-2.77693 -11.1086,-6.479645 -16.200004,-11.108151l0,-0.000005z"/>
   </g>
  </g>
 </g>
</svg>